<svg width="492" height="250" viewBox="0 0 492 250" fill="none" xmlns="http://www.w3.org/2000/svg">
<path d="M125 30L31.9 63.2L46.1 186.3L125 230L203.9 186.3L218.1 63.2L125 30Z" fill="#002336"/>
<path d="M125 30V52.2V52.1V153.4V230L203.9 186.3L218.1 63.2L125 30Z" fill="#354563"/>
<path fill-rule="evenodd" clip-rule="evenodd" d="M140.079 78.5181C139.272 81.1677 138.866 83.9229 138.875 86.6925C138.875 99.7642 150.236 111.125 165.193 111.125C168.983 111.11 172.713 110.177 176.064 108.406C176.637 111.034 176.938 113.764 176.938 116.562C176.938 137.584 159.896 154.625 138.875 154.625V172.75H80.875V78.5H138.875C139.277 78.5 139.68 78.5072 140.079 78.5181Z" fill="url(#paint0_linear)"/>
<path d="M80.875 78.5L175.125 172.75H80.875V78.5Z" fill="url(#paint1_linear)"/>
<path d="M164.25 100.25C172.258 100.25 178.75 93.7581 178.75 85.75C178.75 77.7419 172.258 71.25 164.25 71.25C156.242 71.25 149.75 77.7419 149.75 85.75C149.75 93.7581 156.242 100.25 164.25 100.25Z" fill="url(#paint2_linear)"/>
<defs>
<linearGradient id="paint0_linear" x1="128.906" y1="78.5" x2="128.906" y2="172.75" gradientUnits="userSpaceOnUse">
<stop stop-color="#08B1FA"/>
<stop offset="1" stop-color="#4F8EFF"/>
</linearGradient>
<linearGradient id="paint1_linear" x1="128" y1="78.5" x2="128" y2="172.75" gradientUnits="userSpaceOnUse">
<stop stop-color="#0090FF"/>
<stop offset="1" stop-color="#0059FF"/>
</linearGradient>
<linearGradient id="paint2_linear" x1="164.25" y1="71.25" x2="164.25" y2="100.25" gradientUnits="userSpaceOnUse">
<stop stop-color="#FF3A50"/>
<stop offset="1" stop-color="#ED306B"/>
</linearGradient>
</defs>
</svg>
