<svg width="492" height="250" viewBox="0 0 492 250" fill="none" xmlns="http://www.w3.org/2000/svg">
<path d="M125 30L31.9 63.2L46.1 186.3L125 230L203.9 186.3L218.1 63.2L125 30Z" fill="#002336"/>
<path d="M125 30V52.2V52.1V153.4V230L203.9 186.3L218.1 63.2L125 30Z" fill="#354563"/>
<path fill-rule="evenodd" clip-rule="evenodd" d="M140.079 78.5181C139.272 81.1677 138.866 83.9229 138.875 86.6925C138.875 99.7642 150.236 111.125 165.192 111.125C168.983 111.11 172.713 110.177 176.064 108.406C176.637 111.034 176.938 113.764 176.938 116.562C176.938 137.584 159.896 154.625 138.875 154.625V172.75H80.875V78.5H138.875C139.277 78.5 139.68 78.5072 140.079 78.5181Z" fill="url(#paint0_linear)"/>
<path d="M80.875 78.5L175.125 172.75H80.875V78.5Z" fill="url(#paint1_linear)"/>
<path d="M164.25 100.25C172.258 100.25 178.75 93.7581 178.75 85.75C178.75 77.7419 172.258 71.25 164.25 71.25C156.242 71.25 149.75 77.7419 149.75 85.75C149.75 93.7581 156.242 100.25 164.25 100.25Z" fill="url(#paint2_linear)"/>
<path d="M244.051 118L246.642 110.04H259.239L261.83 118H269.739L257.705 83.0909H248.193L236.142 118H244.051ZM248.517 104.278L252.812 91.0682H253.085L257.381 104.278H248.517ZM281.065 102.864C281.082 99.4886 283.094 97.5114 286.026 97.5114C288.94 97.5114 290.696 99.4205 290.679 102.625V118H297.94V101.33C297.94 95.2273 294.361 91.4773 288.906 91.4773C285.02 91.4773 282.207 93.3864 281.031 96.4375H280.724V91.8182H273.804V118H281.065V102.864ZM315.459 128.364C322.942 128.364 328.26 124.955 328.26 118.256V91.8182H321.05V96.2159H320.777C319.805 94.0852 317.675 91.4773 313.294 91.4773C307.55 91.4773 302.692 95.9432 302.692 104.858C302.692 113.568 307.413 117.625 313.311 117.625C317.487 117.625 319.822 115.528 320.777 113.364H321.084V118.153C321.084 121.75 318.783 123.148 315.629 123.148C312.425 123.148 310.805 121.75 310.209 120.165L303.493 121.068C304.362 125.193 308.402 128.364 315.459 128.364ZM315.612 112.17C312.05 112.17 310.107 109.341 310.107 104.824C310.107 100.375 312.016 97.2557 315.612 97.2557C319.141 97.2557 321.118 100.239 321.118 104.824C321.118 109.443 319.107 112.17 315.612 112.17ZM350.828 106.852C350.845 110.364 348.442 112.205 345.834 112.205C343.089 112.205 341.317 110.278 341.3 107.193V91.8182H334.038V108.489C334.055 114.608 337.635 118.341 342.902 118.341C346.839 118.341 349.669 116.312 350.845 113.244H351.118V118H358.089V91.8182H350.828V106.852ZM371.159 83.0909H363.898V118H371.159V83.0909ZM384.442 118.494C388.311 118.494 390.817 116.807 392.095 114.369H392.3V118H399.186V100.341C399.186 94.1023 393.902 91.4773 388.072 91.4773C381.8 91.4773 377.675 94.4773 376.669 99.25L383.385 99.7955C383.879 98.0568 385.43 96.7784 388.038 96.7784C390.51 96.7784 391.925 98.0227 391.925 100.17V100.273C391.925 101.96 390.135 102.182 385.584 102.625C380.402 103.102 375.749 104.841 375.749 110.688C375.749 115.869 379.447 118.494 384.442 118.494ZM386.521 113.483C384.288 113.483 382.686 112.443 382.686 110.449C382.686 108.403 384.374 107.398 386.93 107.04C388.516 106.818 391.107 106.443 391.976 105.864V108.642C391.976 111.386 389.709 113.483 386.521 113.483ZM404.82 118H412.081V103.188C412.081 99.9659 414.433 97.75 417.638 97.75C418.643 97.75 420.024 97.9205 420.706 98.142V91.6989C420.058 91.5455 419.155 91.4432 418.422 91.4432C415.49 91.4432 413.087 93.1477 412.132 96.3864H411.859V91.8182H404.82V118ZM238.034 176H245.415V163.625H250.801L257.415 176H265.562L258.148 162.432C262.119 160.727 264.318 157.267 264.318 152.494C264.318 145.557 259.733 141.091 251.807 141.091H238.034V176ZM245.415 157.693V147.125H250.392C254.653 147.125 256.716 149.017 256.716 152.494C256.716 155.955 254.653 157.693 250.426 157.693H245.415ZM280.908 176.511C287.385 176.511 291.749 173.358 292.771 168.5L286.055 168.057C285.322 170.051 283.447 171.091 281.027 171.091C277.396 171.091 275.095 168.688 275.095 164.784V164.767H292.925V162.773C292.925 153.875 287.538 149.477 280.618 149.477C272.913 149.477 267.919 154.949 267.919 163.028C267.919 171.33 272.845 176.511 280.908 176.511ZM275.095 160.267C275.249 157.284 277.516 154.898 280.737 154.898C283.891 154.898 286.072 157.148 286.089 160.267H275.095ZM297.663 176H304.925V160.284C304.925 157.386 306.766 155.46 309.186 155.46C311.572 155.46 313.175 157.097 313.175 159.67V176H320.214V160.011C320.214 157.301 321.766 155.46 324.408 155.46C326.726 155.46 328.464 156.909 328.464 159.824V176H335.709V158.392C335.709 152.716 332.334 149.477 327.459 149.477C323.624 149.477 320.641 151.438 319.567 154.438H319.294C318.459 151.403 315.783 149.477 312.186 149.477C308.658 149.477 305.982 151.352 304.891 154.438H304.584V149.818H297.663V176ZM341.445 176H348.706V149.818H341.445V176ZM345.092 146.443C347.257 146.443 349.03 144.79 349.03 142.761C349.03 140.75 347.257 139.097 345.092 139.097C342.945 139.097 341.172 140.75 341.172 142.761C341.172 144.79 342.945 146.443 345.092 146.443ZM360.591 149.818H353.091L360.591 162.909L352.818 176H360.318L365.398 166.949L370.562 176H377.977L370.188 162.909L377.773 149.818H370.324L365.398 158.972L360.591 149.818ZM400.712 141.091H393.331V176H400.712V141.091ZM418.477 176.511C425.449 176.511 429.83 172.42 430.17 166.403H423.318C422.892 169.199 421.051 170.767 418.562 170.767C415.17 170.767 412.972 167.92 412.972 162.909C412.972 157.966 415.188 155.136 418.562 155.136C421.222 155.136 422.926 156.892 423.318 159.5H430.17C429.864 153.449 425.278 149.477 418.443 149.477C410.5 149.477 405.591 154.983 405.591 163.011C405.591 170.972 410.415 176.511 418.477 176.511ZM446.649 176.511C454.592 176.511 459.536 171.074 459.536 163.011C459.536 154.898 454.592 149.477 446.649 149.477C438.706 149.477 433.763 154.898 433.763 163.011C433.763 171.074 438.706 176.511 446.649 176.511ZM446.683 170.886C443.018 170.886 441.143 167.528 441.143 162.96C441.143 158.392 443.018 155.017 446.683 155.017C450.28 155.017 452.155 158.392 452.155 162.96C452.155 167.528 450.28 170.886 446.683 170.886ZM471.518 160.864C471.536 157.489 473.547 155.511 476.479 155.511C479.393 155.511 481.149 157.42 481.132 160.625V176H488.393V159.33C488.393 153.227 484.814 149.477 479.359 149.477C475.473 149.477 472.661 151.386 471.484 154.438H471.178V149.818H464.257V176H471.518V160.864Z" fill="black"/>
<defs>
<linearGradient id="paint0_linear" x1="128.906" y1="78.5" x2="128.906" y2="172.75" gradientUnits="userSpaceOnUse">
<stop stop-color="#08B1FA"/>
<stop offset="1" stop-color="#4F8EFF"/>
</linearGradient>
<linearGradient id="paint1_linear" x1="128" y1="78.5" x2="128" y2="172.75" gradientUnits="userSpaceOnUse">
<stop stop-color="#0090FF"/>
<stop offset="1" stop-color="#0059FF"/>
</linearGradient>
<linearGradient id="paint2_linear" x1="164.25" y1="71.25" x2="164.25" y2="100.25" gradientUnits="userSpaceOnUse">
<stop stop-color="#FF3A50"/>
<stop offset="1" stop-color="#ED306B"/>
</linearGradient>
</defs>
</svg>
